<?xml version="1.0" encoding="UTF-8" standalone="no"?>
<svg
   width="84.296898cm"
   height="44.916672cm"
   viewBox="0 0 842.96896 449.16673"
   version="1.1"
   id="svg11148"
   inkscape:version="1.4.2 (ebf0e940, 2025-05-08)"
   sodipodi:docname="openMINDS_OWL_light.svg"
   inkscape:export-filename="C:\Users\ulrik\Desktop\openMINDS_logos-updated\openMINDS-logo_light.png"
   inkscape:export-xdpi="50"
   inkscape:export-ydpi="50"
   xmlns:inkscape="http://www.inkscape.org/namespaces/inkscape"
   xmlns:sodipodi="http://sodipodi.sourceforge.net/DTD/sodipodi-0.dtd"
   xmlns:xlink="http://www.w3.org/1999/xlink"
   xmlns="http://www.w3.org/2000/svg"
   xmlns:svg="http://www.w3.org/2000/svg"
   xmlns:rdf="http://www.w3.org/1999/02/22-rdf-syntax-ns#"
   xmlns:cc="http://creativecommons.org/ns#"
   xmlns:dc="http://purl.org/dc/elements/1.1/">
  <defs
     id="defs11142">
    <inkscape:path-effect
       effect="bspline"
       id="path-effect1357"
       is_visible="true"
       lpeversion="1"
       weight="33.333333"
       steps="2"
       helper_size="0"
       apply_no_weight="true"
       apply_with_weight="true"
       only_selected="false" />
    <inkscape:path-effect
       effect="bspline"
       id="path-effect1353"
       is_visible="true"
       lpeversion="1"
       weight="33.333333"
       steps="2"
       helper_size="0"
       apply_no_weight="true"
       apply_with_weight="true"
       only_selected="false" />
    <inkscape:path-effect
       effect="bspline"
       id="path-effect1349"
       is_visible="true"
       lpeversion="1"
       weight="33.333333"
       steps="2"
       helper_size="0"
       apply_no_weight="true"
       apply_with_weight="true"
       only_selected="false" />
    <inkscape:path-effect
       effect="bspline"
       id="path-effect1205"
       is_visible="true"
       lpeversion="1"
       weight="33.333333"
       steps="2"
       helper_size="0"
       apply_no_weight="true"
       apply_with_weight="true"
       only_selected="false" />
    <inkscape:path-effect
       effect="bspline"
       id="path-effect1038"
       is_visible="true"
       lpeversion="1"
       weight="33.333333"
       steps="2"
       helper_size="0"
       apply_no_weight="true"
       apply_with_weight="true"
       only_selected="false" />
    <inkscape:path-effect
       effect="bspline"
       id="path-effect1010"
       is_visible="true"
       lpeversion="1"
       weight="33.333333"
       steps="2"
       helper_size="0"
       apply_no_weight="true"
       apply_with_weight="true"
       only_selected="false" />
    <inkscape:path-effect
       effect="bspline"
       id="path-effect976"
       is_visible="true"
       lpeversion="1"
       weight="33.333333"
       steps="2"
       helper_size="0"
       apply_no_weight="true"
       apply_with_weight="true"
       only_selected="false" />
    <inkscape:path-effect
       effect="bspline"
       id="path-effect971"
       is_visible="true"
       lpeversion="1"
       weight="33.333333"
       steps="2"
       helper_size="0"
       apply_no_weight="true"
       apply_with_weight="true"
       only_selected="false" />
    <inkscape:path-effect
       effect="bspline"
       id="path-effect947"
       is_visible="true"
       lpeversion="1"
       weight="33.333333"
       steps="2"
       helper_size="0"
       apply_no_weight="true"
       apply_with_weight="true"
       only_selected="false" />
    <inkscape:path-effect
       effect="bspline"
       id="path-effect924"
       is_visible="true"
       lpeversion="1"
       weight="33.333333"
       steps="2"
       helper_size="0"
       apply_no_weight="true"
       apply_with_weight="true"
       only_selected="false" />
    <linearGradient
       gradientUnits="userSpaceOnUse"
       y2="100"
       x2="200"
       y1="100"
       x1="0.5"
       id="linear-gradient">
      <stop
         id="stop15253"
         stop-color="#f7db2e"
         offset="0" />
      <stop
         id="stop15255"
         stop-color="#82c558"
         offset="0.5" />
      <stop
         id="stop15257"
         stop-color="#127e7a"
         offset="1" />
    </linearGradient>
    <inkscape:path-effect
       effect="bspline"
       id="path-effect8596"
       is_visible="true"
       weight="33.333333"
       steps="2"
       helper_size="0"
       apply_no_weight="true"
       apply_with_weight="true"
       only_selected="false"
       lpeversion="0" />
    <inkscape:path-effect
       effect="bspline"
       id="path-effect8598"
       is_visible="true"
       weight="33.333333"
       steps="2"
       helper_size="0"
       apply_no_weight="true"
       apply_with_weight="true"
       only_selected="false"
       lpeversion="0" />
    <inkscape:path-effect
       effect="bspline"
       id="path-effect8600"
       is_visible="true"
       weight="33.333333"
       steps="2"
       helper_size="0"
       apply_no_weight="true"
       apply_with_weight="true"
       only_selected="false"
       lpeversion="0" />
    <inkscape:path-effect
       effect="bspline"
       id="path-effect8602"
       is_visible="true"
       weight="33.333333"
       steps="2"
       helper_size="0"
       apply_no_weight="true"
       apply_with_weight="true"
       only_selected="false"
       lpeversion="0" />
    <inkscape:path-effect
       effect="bspline"
       id="path-effect8604"
       is_visible="true"
       weight="33.333333"
       steps="2"
       helper_size="0"
       apply_no_weight="true"
       apply_with_weight="true"
       only_selected="false"
       lpeversion="0" />
    <inkscape:path-effect
       effect="bspline"
       id="path-effect8606"
       is_visible="true"
       weight="33.333333"
       steps="2"
       helper_size="0"
       apply_no_weight="true"
       apply_with_weight="true"
       only_selected="false"
       lpeversion="0" />
    <inkscape:path-effect
       effect="bspline"
       id="path-effect8608"
       is_visible="true"
       weight="33.333333"
       steps="2"
       helper_size="0"
       apply_no_weight="true"
       apply_with_weight="true"
       only_selected="false"
       lpeversion="0" />
    <inkscape:path-effect
       effect="bspline"
       id="path-effect8610"
       is_visible="true"
       weight="33.333333"
       steps="2"
       helper_size="0"
       apply_no_weight="true"
       apply_with_weight="true"
       only_selected="false"
       lpeversion="0" />
    <inkscape:path-effect
       effect="bspline"
       id="path-effect8612"
       is_visible="true"
       weight="33.333333"
       steps="2"
       helper_size="0"
       apply_no_weight="true"
       apply_with_weight="true"
       only_selected="false"
       lpeversion="0" />
    <inkscape:path-effect
       effect="bspline"
       id="path-effect8614"
       is_visible="true"
       weight="33.333333"
       steps="2"
       helper_size="0"
       apply_no_weight="true"
       apply_with_weight="true"
       only_selected="false"
       lpeversion="0" />
    <inkscape:path-effect
       effect="bspline"
       id="path-effect15470"
       is_visible="true"
       weight="33.333333"
       steps="2"
       helper_size="0"
       apply_no_weight="true"
       apply_with_weight="true"
       only_selected="false"
       lpeversion="0" />
    <inkscape:path-effect
       effect="bspline"
       id="path-effect15468"
       is_visible="true"
       weight="33.333333"
       steps="2"
       helper_size="0"
       apply_no_weight="true"
       apply_with_weight="true"
       only_selected="false"
       lpeversion="0" />
    <inkscape:path-effect
       effect="bspline"
       id="path-effect15466"
       is_visible="true"
       weight="33.333333"
       steps="2"
       helper_size="0"
       apply_no_weight="true"
       apply_with_weight="true"
       only_selected="false"
       lpeversion="0" />
    <inkscape:path-effect
       effect="bspline"
       id="path-effect15464"
       is_visible="true"
       weight="33.333333"
       steps="2"
       helper_size="0"
       apply_no_weight="true"
       apply_with_weight="true"
       only_selected="false"
       lpeversion="0" />
    <inkscape:path-effect
       effect="bspline"
       id="path-effect15462"
       is_visible="true"
       weight="33.333333"
       steps="2"
       helper_size="0"
       apply_no_weight="true"
       apply_with_weight="true"
       only_selected="false"
       lpeversion="0" />
    <inkscape:path-effect
       effect="bspline"
       id="path-effect15460"
       is_visible="true"
       weight="33.333333"
       steps="2"
       helper_size="0"
       apply_no_weight="true"
       apply_with_weight="true"
       only_selected="false"
       lpeversion="0" />
    <inkscape:path-effect
       effect="bspline"
       id="path-effect15458"
       is_visible="true"
       weight="33.333333"
       steps="2"
       helper_size="0"
       apply_no_weight="true"
       apply_with_weight="true"
       only_selected="false"
       lpeversion="0" />
    <inkscape:path-effect
       effect="bspline"
       id="path-effect15456"
       is_visible="true"
       weight="33.333333"
       steps="2"
       helper_size="0"
       apply_no_weight="true"
       apply_with_weight="true"
       only_selected="false"
       lpeversion="0" />
    <inkscape:path-effect
       effect="bspline"
       id="path-effect15454"
       is_visible="true"
       weight="33.333333"
       steps="2"
       helper_size="0"
       apply_no_weight="true"
       apply_with_weight="true"
       only_selected="false"
       lpeversion="0" />
    <linearGradient
       inkscape:collect="always"
       xlink:href="#linear-gradient"
       id="linearGradient15576"
       gradientUnits="userSpaceOnUse"
       gradientTransform="translate(6381.8047,2289.5199)"
       x1="-6012.9951"
       y1="-2083.6816"
       x2="-6012.9951"
       y2="-2217.5669" />
    <inkscape:path-effect
       effect="bspline"
       id="path-effect15452"
       is_visible="true"
       weight="33.333333"
       steps="2"
       helper_size="0"
       apply_no_weight="true"
       apply_with_weight="true"
       only_selected="false"
       lpeversion="0" />
  </defs>
  <sodipodi:namedview
     id="base"
     pagecolor="#ffffff"
     bordercolor="#666666"
     borderopacity="1.0"
     inkscape:pageopacity="0.0"
     inkscape:pageshadow="2"
     inkscape:zoom="0.61129129"
     inkscape:cx="-55.619965"
     inkscape:cy="1258.8107"
     inkscape:document-units="mm"
     inkscape:current-layer="layer1"
     inkscape:document-rotation="0"
     showgrid="false"
     inkscape:window-width="1968"
     inkscape:window-height="1036"
     inkscape:window-x="77"
     inkscape:window-y="34"
     inkscape:window-maximized="0"
     lock-margins="true"
     fit-margin-top="4"
     fit-margin-left="4"
     fit-margin-right="4"
     fit-margin-bottom="4"
     units="cm"
     showguides="true"
     inkscape:guide-bbox="true"
     inkscape:showpageshadow="2"
     inkscape:pagecheckerboard="true"
     inkscape:deskcolor="#d1d1d1">
    <sodipodi:guide
       position="126.55616,40.132799"
       orientation="0,-1"
       id="guide1000"
       inkscape:locked="false" />
    <sodipodi:guide
       position="170.30784,40.132799"
       orientation="1,0"
       id="guide1002"
       inkscape:locked="false" />
    <sodipodi:guide
       position="126.55616,40.132799"
       orientation="1,0"
       id="guide1004"
       inkscape:locked="false" />
    <sodipodi:guide
       position="128.28904,274.15782"
       orientation="0,-1"
       id="guide1032"
       inkscape:locked="false" />
    <sodipodi:guide
       position="128.28904,247.69949"
       orientation="0,-1"
       id="guide1040"
       inkscape:locked="false" />
    <sodipodi:guide
       position="148.432,40.1328"
       orientation="1,0"
       id="guide1359"
       inkscape:locked="false" />
  </sodipodi:namedview>
  <metadata
     id="metadata11145">
    <rdf:RDF>
      <cc:Work
         rdf:about="">
        <dc:format>image/svg+xml</dc:format>
        <dc:type
           rdf:resource="http://purl.org/dc/dcmitype/StillImage" />
      </cc:Work>
    </rdf:RDF>
  </metadata>
  <g
     inkscape:label="Ebene 1"
     inkscape:groupmode="layer"
     id="layer1"
     transform="translate(311.115,127.11867)">
    <path
       sodipodi:nodetypes="cccccccccccccccccccccccscccccccc"
       inkscape:original-d="m 324.026,40.7816 v 186.3901 c 0,0 6.386,6.6721 9.578,10.0095 7.217,2.4116 14.432,4.8237 21.647,7.2369 8.221,-0.8049 16.442,-1.6091 24.662,-2.4123 3.563,-3.2899 7.126,-6.5798 10.687,-9.8684 1.421,-1.6402 2.843,-3.2806 4.265,-4.9208 1.188,0.073 2.376,0.146 3.562,0.2194 6.217,0.4697 12.443,0.9403 18.662,1.4107 3.928,-6.1398 7.856,-12.2817 11.783,-18.4209 -1.668,-6.4074 -3.336,-12.8114 -5.006,-19.2239 1.189,-0.2196 2.376,-0.4389 3.562,-0.6577 5.38,-4.2043 10.765,-8.413 16.153,-12.6237 0.183,-4.5356 0.366,-9.0652 0.548,-13.5961 -1.844,-4.6106 -5.533,-13.8338 -5.533,-13.8338 L 437.5,149.394 c 0,0 6.356,-7.7075 9.533,-11.5597 -1.644,-5.9201 -3.288,-11.8426 -4.932,-17.7631 -2.351,-1.2537 -4.701,-2.5068 -7.053,-3.7605 1.348,-7.6932 2.694,-15.3828 4.04,-23.0697 -2.105,-3.4878 -4.213,-6.9782 -6.32,-10.4664 -4.225,-1.5935 -8.451,-3.1869 -12.678,-4.7801 -2.816,-1.5667 -5.631,-3.1328 -8.447,-4.6989 -0.712,-7.5867 -1.424,-15.173 -2.136,-22.7591 -5.266,-1.874 -10.531,-3.7476 -15.797,-5.6212 -4.314,1.7139 -8.626,3.4271 -12.942,5.1423 -3.516,-2.3102 -7.033,-4.6197 -10.545,-6.9263 -2.044,-2.0858 -4.076,-4.16 -6.136,-6.2619 -4.54,-1.2937 -9.011,-2.5678 -13.523,-3.8529 -4.452,-0.195 -8.885,-0.3889 -13.345,-0.5837 -3.89,0.5467 -7.754,1.0899 -11.639,1.6365 -0.519,2.2404 -1.554,6.7123 -1.554,6.7123 z"
       inkscape:path-effect="#path-effect15452"
       inkscape:connector-curvature="0"
       id="path1190-2-8-8-7-0-8-9-2-9-5-4-17-1"
       d="m 324.026,40.7816 c 0,0 0,186.3901 0,186.3901 3.19267,3.3365 6.3852,6.67286 11.58993,9.5475 5.20473,2.87463 12.41973,5.28671 20.13794,6.09074 7.7182,0.80402 15.93921,-1.1e-4 21.83063,-2.04713 5.89141,-2.04701 9.45432,-5.33701 11.94558,-7.80116 2.49127,-2.46415 3.91314,-4.10466 5.21803,-4.88827 1.30488,-0.78361 2.49287,-0.71043 6.19437,-0.43893 3.7015,0.2715 9.9275,0.74214 15.00078,-2.09285 5.07328,-2.835 9.00177,-8.97658 10.13101,-15.24983 1.12924,-6.27324 -0.53841,-12.67733 -0.77884,-15.99337 -0.24042,-3.31604 0.9466,-3.53522 4.22953,-5.74693 3.28294,-2.2117 8.66807,-6.42023 11.45346,-10.7934 2.78539,-4.37318 2.96796,-8.90279 2.13724,-13.47352 -0.83072,-4.57073 -2.67533,-9.18268 -4.51966,-13.79395 0,0 -1.096,-1.0966 -1.096,-1.0966 3.17767,-3.85323 6.35611,-7.70741 7.12268,-12.59364 0.76656,-4.88623 -0.87782,-10.80862 -2.87529,-14.39566 -1.99747,-3.58704 -4.34753,-4.84004 -4.84983,-9.31368 -0.50229,-4.47365 0.8443,-12.16314 0.46448,-17.750247 -0.37982,-5.587103 -2.48755,-9.077665 -5.65338,-11.618446 -3.16583,-2.54078 -7.39184,-4.134151 -10.9133,-5.714257 -3.52145,-1.580106 -6.33652,-3.146076 -8.10046,-7.722621 -1.76393,-4.576546 -2.47592,-12.162847 -5.46494,-16.892832 -2.98901,-4.729986 -8.25404,-6.603493 -13.04397,-6.683369 -4.78992,-0.07988 -9.10189,1.633416 -13.01812,1.336055 -3.91623,-0.297361 -7.43296,-2.607266 -10.21088,-4.803569 -2.77792,-2.196302 -4.81017,-4.270254 -8.11011,-5.968057 -3.29993,-1.697803 -7.77099,-2.971675 -12.25294,-3.71179 -4.48195,-0.740115 -8.91495,-0.934011 -13.08993,-0.758075 -4.17498,0.175936 -8.03896,0.719231 -10.24084,2.112594 -2.20187,1.393363 -2.71917,3.627761 -3.23717,5.865194 z"
       style="fill:url(#linearGradient15576);fill-opacity:1;stroke:none;stroke-width:14;stroke-linecap:round;stroke-linejoin:round;stroke-miterlimit:4;stroke-dasharray:none;stroke-opacity:1" />
    <g
       id="g1370"
       style="stroke:#000000;stroke-opacity:1">
      <path
         sodipodi:nodetypes="ccaccccccccccccccccccccsccccccccc"
         inkscape:original-d="m 324.026,58.175 v 153.4443 c 0,0 0,13.1241 0,19.6865 3.193,1.9582 6.386,3.9167 9.578,5.8754 7.217,2.4116 14.433,4.8237 21.648,7.2369 8.221,-0.8049 16.442,-1.6091 24.661,-2.4123 3.563,-3.2899 7.126,-6.5798 10.687,-9.8684 1.422,-1.6402 2.844,-3.2806 4.265,-4.9208 1.188,0.073 2.376,0.146 3.562,0.2194 6.218,0.4697 12.443,0.9403 18.663,1.4107 3.927,-6.1398 7.856,-12.2817 11.783,-18.4209 -1.669,-6.4074 -3.336,-12.8114 -5.006,-19.2239 1.188,-0.2196 2.376,-0.4389 3.562,-0.6577 5.38,-4.2043 10.765,-8.413 16.153,-12.6237 0.183,-4.5356 0.365,-9.0652 0.548,-13.5961 -2.209,-4.9761 -6.63,-14.9304 -6.63,-14.9304 0,0 6.357,-7.7075 9.533,-11.5597 -1.643,-5.9201 -3.288,-11.8426 -4.932,-17.7631 -2.35,-1.2537 -4.701,-2.5068 -7.053,-3.7605 1.348,-7.6932 2.695,-15.3828 4.041,-23.0697 -2.106,-3.4878 -4.213,-6.9782 -6.32,-10.4664 -4.226,-1.5935 -8.452,-3.1869 -12.679,-4.7801 -2.815,-1.5667 -5.631,-3.1328 -8.447,-4.6989 -0.711,-7.5867 -1.423,-15.173 -2.136,-22.7591 -5.265,-1.874 -10.531,-3.7476 -15.797,-5.6212 -4.314,1.7139 -8.625,3.4271 -12.941,5.1423 -3.517,-2.3102 -7.033,-4.6197 -10.546,-6.9263 -2.009,-1.6728 -4.007,-3.3361 -6.032,-5.0217 -4.566,-1.4229 -9.065,-2.8243 -13.603,-4.2378 -4.46,-0.1878 -8.901,-0.3745 -13.369,-0.562 -3.889,0.8397 -7.758,1.6752 -11.638,2.5135 -0.518,2.0427 -1.555,6.128 -1.555,6.128 z"
         inkscape:path-effect="#path-effect15454"
         inkscape:connector-curvature="0"
         id="path1190-2-8-8-7-0-8-9-8-3-3-1-4"
         d="m 324.026,58.175 c 0,0 0,153.4443 0,153.4443 0,6.56217 0,13.1241 1.5964,17.38457 1.59639,4.26047 4.78931,6.2191 9.9938,8.40448 5.20449,2.18538 12.42043,4.59766 20.13865,5.40162 7.71822,0.80396 15.93922,-2.1e-4 21.83014,-2.04719 5.89092,-2.04698 9.45383,-5.33698 11.94531,-7.80138 2.49148,-2.46439 3.91335,-4.1049 5.21802,-4.88826 1.30467,-0.78337 2.49266,-0.71019 6.19466,-0.43866 3.702,0.27152 9.927,0.74206 15.00063,-2.09268 5.07364,-2.83474 9.00242,-8.97678 10.13163,-15.25015 1.12921,-6.27337 -0.53838,-12.67721 -0.77929,-15.99316 -0.24091,-3.31595 0.94708,-3.53531 4.23001,-5.74702 3.28294,-2.2117 8.66807,-6.42023 11.45346,-10.7934 2.78539,-4.37318 2.96796,-8.90275 1.95448,-13.65613 -1.01348,-4.75338 -3.2239,-9.73114 -5.4339,-14.70794 3.17767,-3.85323 6.35652,-7.7079 7.12291,-12.59375 0.7664,-4.88586 -0.87805,-10.80851 -2.87513,-14.39535 -1.99708,-3.58683 -4.34792,-4.84024 -4.85005,-9.31386 -0.50214,-4.47361 0.84481,-12.16322 0.46502,-17.750516 -0.3798,-5.587296 -2.48726,-9.077416 -5.65355,-11.618307 -3.16629,-2.54089 -7.39234,-4.134151 -10.91343,-5.71399 -3.5211,-1.579838 -6.33693,-3.146233 -8.10086,-7.722732 -1.76393,-4.576499 -2.47593,-12.1628 -5.4645,-16.892674 -2.98857,-4.729874 -8.25449,-6.603697 -13.04439,-6.683516 -4.78991,-0.07982 -9.10096,1.633244 -13.01757,1.335788 -3.91661,-0.297456 -7.43274,-2.60675 -10.19367,-4.596587 -2.76092,-1.989836 -4.75889,-3.653169 -8.0544,-5.207289 -3.2955,-1.554121 -7.79445,-2.955696 -12.29342,-3.756301 -4.49897,-0.800604 -8.93997,-0.987293 -13.11844,-0.661249 -4.17847,0.326044 -8.04745,1.161641 -10.24665,2.601946 -2.19919,1.440306 -2.71754,3.48302 -3.23587,5.525687 z"
         style="fill:none;stroke:#000000;stroke-width:14;stroke-linecap:round;stroke-linejoin:round;stroke-miterlimit:4;stroke-dasharray:none;stroke-opacity:1" />
      <path
         sodipodi:nodetypes="ccccc"
         inkscape:original-d="m 389.957,51.8413 c -2.396,0.5061 -4.788,1.0116 -7.188,1.5191 -4.642,0.9948 -9.268,1.9863 -13.903,2.98 -1.832,2.7714 -3.664,5.5413 -5.497,8.3135 0.08,0.8192 0.165,1.6384 0.247,2.4576"
         inkscape:path-effect="#path-effect15456"
         inkscape:connector-curvature="0"
         id="path1198-1-7-1-8-23-1-32-8-0-1-3-3"
         d="m 389.957,51.8413 c -2.39595,0.506355 -4.78794,1.011876 -8.30895,1.762972 -3.52101,0.751097 -8.147,1.742642 -11.3807,3.624973 -3.23369,1.882331 -5.06534,4.652463 -5.94069,6.448043 -0.87535,1.79558 -0.79299,2.615045 -0.71066,3.434212"
         style="fill:none;stroke:#000000;stroke-width:4.06032;stroke-linecap:round;stroke-linejoin:round;stroke-miterlimit:4;stroke-dasharray:none;stroke-opacity:1" />
      <path
         sodipodi:nodetypes="ccc"
         inkscape:original-d="m 326.434,96.9625 c 3.631,-4.2541 7.261,-8.5073 10.891,-12.76 5.947,1.6768 11.895,3.3543 17.841,5.0315"
         inkscape:path-effect="#path-effect15458"
         inkscape:connector-curvature="0"
         id="path1202-4-02-6-4-91-82-9-27-9-0-8-5"
         d="m 326.434,96.9625 c 3.63099,-4.254106 7.26112,-8.507198 12.04951,-9.795029 4.78839,-1.287831 10.73641,0.389621 16.68249,2.066529"
         style="fill:none;stroke:#000000;stroke-width:4.06032;stroke-linecap:round;stroke-linejoin:round;stroke-miterlimit:4;stroke-dasharray:none;stroke-opacity:1" />
      <path
         sodipodi:nodetypes="cccccsc"
         inkscape:original-d="m 427.183,85.9771 c -4.297,-2.0034 -8.592,-4.0059 -12.889,-6.0087 -2.701,-0.6154 -5.4,-1.2305 -8.1,-1.8453 -4.995,0.1542 -9.991,0.3087 -14.987,0.4634 -3.04,3.403 -6.081,6.8059 -9.123,10.2099 -1.014,3.6097 -2.029,7.2188 -3.044,10.8292 0.452,1.9219 0.905,3.8439 1.356,5.7659"
         inkscape:path-effect="#path-effect15460"
         inkscape:connector-curvature="0"
         id="path1206-3-4-5-1-1-2-5-3-2-9-9-1"
         d="m 427.183,85.9771 c -4.29707,-2.003245 -8.59216,-4.005563 -12.09109,-5.314797 -3.49893,-1.309234 -6.19797,-1.924118 -10.04544,-2.154437 -3.84746,-0.23032 -8.84346,-0.07584 -12.86167,1.702714 -4.01821,1.778556 -7.05901,5.181634 -9.08721,8.688491 -2.0282,3.506858 -3.04273,7.116091 -3.32417,9.882262 -0.28143,2.766167 0.17062,4.688387 0.62258,6.610167"
         style="fill:none;stroke:#000000;stroke-width:4.06032;stroke-linecap:round;stroke-linejoin:round;stroke-miterlimit:4;stroke-dasharray:none;stroke-opacity:1" />
      <path
         sodipodi:nodetypes="ccccc"
         inkscape:original-d="m 435.413,144.1919 c -2.295,2.6262 -4.589,5.251 -6.885,7.8788 -2.096,1.6977 -4.19,3.394 -6.286,5.0913 -4.634,1.4865 -9.268,2.9732 -13.904,4.4604 -1.352,-0.024 -2.705,-0.048 -4.058,-0.072"
         inkscape:path-effect="#path-effect15462"
         inkscape:connector-curvature="0"
         id="path1210-3-03-6-6-0-1-82-6-9-0-0-5"
         d="m 435.413,144.1919 c -2.29497,2.62623 -4.58881,5.25117 -6.78492,7.41382 -2.19611,2.16264 -4.29025,3.85877 -7.65515,5.45082 -3.3649,1.59204 -7.99894,3.07863 -10.99293,3.81025 -2.994,0.73162 -4.347,0.70762 -5.7,0.68361"
         style="fill:none;stroke:#000000;stroke-width:4.06032;stroke-linecap:round;stroke-linejoin:round;stroke-miterlimit:4;stroke-dasharray:none;stroke-opacity:1" />
      <path
         sodipodi:nodetypes="cccccc"
         inkscape:original-d="m 355.78,220.2149 c -0.162,-1.1655 -0.325,-2.331 -0.489,-3.4967 1.078,-3.8091 2.156,-7.6178 3.233,-11.4262 3.835,-2.7983 7.668,-5.5957 11.502,-8.3926 4.623,-1.0833 9.247,-2.1664 13.869,-3.2488 2.368,0.089 4.737,0.18 7.104,0.2708"
         inkscape:path-effect="#path-effect15464"
         inkscape:connector-curvature="0"
         id="path1214-8-85-3-2-0-9-2-1-9-5-7-6"
         d="m 355.78,220.2149 c -0.16297,-1.16536 -0.32596,-2.33087 0.13141,-4.81836 0.45738,-2.4875 1.53506,-6.29629 3.99133,-9.59955 2.45628,-3.30327 6.28956,-6.10028 10.51795,-8.04041 4.22839,-1.94013 8.85238,-3.0233 12.34732,-3.51951 3.49494,-0.49621 5.86397,-0.4059 8.23099,-0.31567"
         style="fill:none;stroke:#000000;stroke-width:4.06032;stroke-linecap:round;stroke-linejoin:round;stroke-miterlimit:4;stroke-dasharray:none;stroke-opacity:1" />
      <path
         inkscape:original-d="m 378.144,194.4628 c -0.676,-4.9638 -1.352,-10.1077 -2.029,-15.1607 -2.593,-3.3392 -5.187,-6.6785 -7.781,-10.017 -3.946,-2.0761 -7.893,-4.1517 -11.84,-6.2267 -4.059,-0.3616 -8.118,-0.7226 -12.178,-1.0829"
         inkscape:path-effect="#path-effect15466"
         inkscape:connector-curvature="0"
         id="path1218-5-7-6-4-0-5-8-4-5-2-30-2"
         d="m 378.144,194.4628 c -0.66453,-4.96534 -1.35273,-10.1076 -2.98762,-14.30355 -1.63489,-4.19595 -4.22883,-7.5353 -7.49879,-10.24243 -3.26995,-2.70713 -7.2169,-4.78284 -11.21977,-6.0011 -4.00288,-1.21826 -8.06188,-1.5792 -12.12182,-1.94022"
         style="fill:none;stroke:#000000;stroke-width:4.06032;stroke-linecap:round;stroke-linejoin:round;stroke-miterlimit:4;stroke-dasharray:none;stroke-opacity:1" />
      <path
         inkscape:original-d="m 350.301,123.8886 c 5.752,2.2555 11.728,4.5115 17.591,6.7682 6.315,0.1799 12.63,0.3604 18.944,0.5414 4.511,-3.0685 9.022,-6.137 13.531,-9.2047 1.918,-4.3315 3.835,-8.6638 5.751,-12.995 0.339,-1.6246 0.677,-3.2492 1.015,-4.8731"
         inkscape:path-effect="#path-effect15468"
         inkscape:connector-curvature="0"
         id="path1222-8-3-25-7-6-2-7-0-3-0-5-5"
         d="m 350.301,123.8886 c 5.76621,2.21857 11.7277,4.51228 17.81684,5.73048 6.08914,1.2182 12.40414,1.39867 17.81661,-0.0454 5.41246,-1.44409 9.92338,-4.51272 13.13651,-8.21239 3.21314,-3.69967 5.13038,-8.03186 6.25791,-11.00968 1.12754,-2.97781 1.4659,-4.60234 1.80413,-6.22619"
         style="fill:none;stroke:#000000;stroke-width:4.06032;stroke-linecap:round;stroke-linejoin:round;stroke-miterlimit:4;stroke-dasharray:none;stroke-opacity:1" />
      <path
         sodipodi:nodetypes="ccccc"
         inkscape:original-d="m 374.996,130.6568 c -0.265,3.27 -0.53,6.54 -0.796,9.8119 2.295,2.0755 4.589,4.1506 6.883,6.2267 3.61,1.241 7.219,2.4825 10.827,3.7246 2.03,-6e-4 4.06,-6e-4 6.089,0"
         inkscape:path-effect="#path-effect15470"
         inkscape:connector-curvature="0"
         id="path1226-7-53-75-1-6-4-59-8-7-0-8-0"
         d="m 374.996,130.6568 c -0.26528,3.26998 -0.53056,6.53995 0.48405,9.21386 1.01462,2.67391 3.30853,4.7491 6.26061,6.40781 2.95207,1.65871 6.56106,2.90024 9.3802,3.52089 C 393.94,150.42 395.97,150.42 397.999,150.42"
         style="fill:none;stroke:#000000;stroke-width:4.06032;stroke-linecap:round;stroke-linejoin:round;stroke-miterlimit:4;stroke-dasharray:none;stroke-opacity:1" />
    </g>
    <path
       style="fill:none;stroke:#000000;stroke-width:15;stroke-linecap:round;stroke-linejoin:round;stroke-miterlimit:4;stroke-dasharray:none;stroke-opacity:1"
       d="M 275.234,35.619131 V 242.63894 L 165.87001,34.963932 V 241.98311"
       id="path1486-5-5-5-1-5-9-0-19-4-0-4"
       inkscape:connector-curvature="0"
       sodipodi:nodetypes="cccc"
       inkscape:export-xdpi="50"
       inkscape:export-ydpi="50" />
    <path
       style="fill:none;stroke:#000000;stroke-width:15;stroke-linecap:round;stroke-linejoin:round;stroke-miterlimit:4;stroke-dasharray:none;stroke-opacity:1"
       d="M -109.331,274.54754 V 34.963231 L -20.85,104.03172 67.634,34.963231 V 241.98311"
       id="path1908-1-5-79-2-0-88-5-5-0-8-1"
       inkscape:connector-curvature="0"
       sodipodi:nodetypes="ccccc"
       inkscape:export-xdpi="50"
       inkscape:export-ydpi="50" />
    <path
       sodipodi:nodetypes="sssss"
       inkscape:connector-curvature="0"
       id="path1910-6-6-8-8-7-5-89-7-0-2-7-2"
       d="m -182.681,-44.735471 c 0,17.803702 -18.118,34.882302 -40.467,34.882302 -22.35,0 -40.467,-17.0786 -40.467,-34.882302 0,-17.803799 18.117,-34.882399 40.467,-34.882399 22.349,0 40.467,17.0786 40.467,34.882399 z"
       style="fill:none;fill-opacity:1;stroke:#000000;stroke-width:15;stroke-linecap:round;stroke-linejoin:round;stroke-miterlimit:4;stroke-dasharray:none;stroke-dashoffset:0;stroke-opacity:1" />
    <path
       style="fill:none;stroke:#000000;stroke-width:15;stroke-linecap:round;stroke-linejoin:round;stroke-miterlimit:4;stroke-dasharray:none;stroke-opacity:1"
       d="M -162.683,40.522532 V -9.853069 m 0,-69.710701 36.994,-0.054 c 22.349,-0.04 40.467,17.0787 40.467,34.8825 0,17.803601 -18.118,34.882101 -40.467,34.882101 h -36.994 z"
       id="path1942-5-1-9-0-95-4-2-4-4-3-5"
       inkscape:connector-curvature="0"
       sodipodi:nodetypes="cccssscc" />
    <g
       id="g1996-8-1-58-6-6-47-3-2-2-7-0"
       transform="matrix(1.5113121,0,0,1.5113121,105.30509,-57.777352)"
       style="stroke:#000000;stroke-width:9.92515;stroke-miterlimit:4;stroke-dasharray:none;stroke-opacity:1"
       inkscape:export-xdpi="50"
       inkscape:export-ydpi="50">
      <path
         sodipodi:nodetypes="ccccscc"
         inkscape:connector-curvature="0"
         id="path1910-6-3-1-0-87-3-4-3-0-1-14-14-7"
         d="m -64.944758,22.900443 c -5.800014,5.679036 -14.834199,8.70694 -21.116025,8.80986 -14.788057,0 -26.776137,-11.300517 -26.776137,-23.0808293 m 0,0 c 0,-11.7803118 11.98808,-23.0808287 26.776137,-23.0808297 14.788054,0 26.77614,11.300517 26.77614,23.0808297 z"
         style="opacity:1;fill:none;fill-opacity:1;stroke:#000000;stroke-width:9.92515;stroke-linecap:round;stroke-linejoin:round;stroke-miterlimit:4;stroke-dasharray:none;stroke-dashoffset:0;stroke-opacity:1" />
    </g>
    <g
       id="g2033-8-98-9-6-3-4-7-4-9-6-6"
       transform="matrix(1.5113121,0,0,1.5113121,85.366089,-66.983263)"
       style="stroke:#000000;stroke-width:9.92515;stroke-miterlimit:4;stroke-dasharray:none;stroke-opacity:1"
       inkscape:export-xdpi="50"
       inkscape:export-ydpi="50">
      <path
         sodipodi:nodetypes="cssc"
         inkscape:connector-curvature="0"
         id="path1910-6-7-3-5-2-3-7-50-5-5-1-0-8"
         d="m -32.785292,14.755479 c 0,-11.7803139 11.988086,-23.080635 26.77614,-23.080635 14.788054,0 26.776152,11.3000415 26.776152,23.080355 V 204.43589"
         style="opacity:1;fill:none;fill-opacity:1;stroke:#000000;stroke-width:9.92515;stroke-linecap:round;stroke-linejoin:round;stroke-miterlimit:4;stroke-dasharray:none;stroke-dashoffset:0;stroke-opacity:1" />
      <path
         sodipodi:nodetypes="ccc"
         inkscape:connector-curvature="0"
         id="path2028-2-0-71-7-8-4-8-2-5-1-7"
         d="m -32.785042,-8.2893725 -2.5e-4,23.0448515 2.5e-4,23.116521"
         style="fill:none;stroke:#000000;stroke-width:9.92515;stroke-linecap:round;stroke-linejoin:round;stroke-miterlimit:4;stroke-dasharray:none;stroke-opacity:1" />
    </g>
    <path
       style="fill:none;fill-opacity:1;stroke:#000000;stroke-width:15;stroke-linecap:round;stroke-linejoin:round;stroke-miterlimit:4;stroke-dasharray:none;stroke-dashoffset:0;stroke-opacity:1"
       d="M -22.967,274.54804 H 237.56 304.25501 364.506 c 25.37302,0 50.26798,-2.17512 71.13398,-14.42051 15.939,-9.35389 28.364,-25.28958 36.113,-42.06689 11.334,-24.53831 12.601,-53.07411 12.601,-80.10361 0,-27.0296 -1.267,-55.565295 -12.601,-80.103599 -7.749,-16.777301 -20.588,-32.041299 -36.113,-42.066901 -19.865,-12.828799 -66.16597,-13.688298 -86.25097,-14.419098 -20.46902,-1.811301 -24.90499,-1.878201 -33.342,-9.818601 -7.85,-7.3875 -10.99701,-19.630699 -10.99701,-30.4098 0,-10.779101 3.46901,-22.694601 10.99701,-30.409901 6.633,-6.7985 17.05099,-10.3478 26.54901,-10.3478 h 93.82396 c 9.498,0 19.916,3.5492 26.549,10.3478 7.527,7.7153 10.996,22.150601 10.996,30.409901"
       id="path1910-6-0-3-9-8-3-61-3-0-2-0-1-4"
       inkscape:connector-curvature="0"
       sodipodi:nodetypes="cccsaaaascaaassac" />
    <path
       style="fill:#000000;fill-opacity:1;stroke-width:0.354999;stroke-dasharray:none"
       d="m -162.4366,281.56059 c -15.33976,-2.97014 -27.35199,-15.91189 -30.20328,-32.5405 -0.2848,-1.66095 -0.65951,-5.09836 -0.83268,-7.63865 -0.25891,-3.79802 -0.50301,-5.10112 -1.37368,-7.33343 -3.18632,-8.1693 -11.05102,-15.72459 -23.74986,-22.81547 -9.24817,-5.16406 -18.46936,-7.68596 -24.25757,-6.63416 -2.86532,0.52064 -4.28905,1.18194 -7.16111,3.32615 -2.97799,2.22332 -8.64202,4.98666 -12.25739,5.98011 -4.07351,1.11932 -12.59749,1.1284 -16.62165,0.0177 -12.30546,-3.39637 -21.96238,-12.94659 -26.34778,-26.05664 -3.02869,-9.0542 -3.09021,-18.72432 -0.17736,-27.87475 6.00837,-18.87464 23.30867,-30.27436 40.887,-26.94179 3.59386,0.68134 7.55654,2.17368 10.43139,3.92845 1.17244,0.71565 2.53141,1.34809 3.01993,1.40545 0.48852,0.0573 1.8475,0.35026 3.01994,0.65093 9.78853,2.51021 26.09836,-4.78589 39.48642,-17.664 5.43402,-5.22704 8.37164,-9.36149 9.77254,-13.75403 0.64288,-2.01572 0.72995,-3.12255 0.68484,-8.704521 -0.0781,-9.670339 1.03438,-14.804571 4.81163,-22.205403 4.12375,-8.079727 9.94324,-13.803442 17.75766,-17.4654 5.22618,-2.449073 7.61576,-2.927784 14.7098,-2.946865 6.85771,-0.01844 9.40646,0.448614 14.87784,2.726354 8.8505,3.684476 16.65684,12.449984 20.4228,22.932191 2.32535,6.472367 3.17795,15.878199 2.03647,22.466064 -1.00085,5.77626 -3.71918,12.65638 -6.94848,17.58669 -1.93797,2.95878 -7.32818,8.29122 -10.35355,10.24256 -2.99282,1.93036 -4.388,3.43433 -5.82303,6.27709 -3.03648,6.01527 -4.30758,14.14523 -4.27736,27.35826 0.039,17.04806 2.34312,28.64474 6.85862,34.51939 0.69981,0.91043 1.19282,1.7349 1.09559,1.83214 -0.0972,0.0973 0.91414,0.75239 2.2475,1.45587 8.28609,4.37176 15.09327,12.55003 18.50815,22.23605 1.89948,5.38772 2.3781,8.42675 2.3781,15.0997 0,6.86998 -0.50218,9.91822 -2.54616,15.45497 -2.24298,6.07576 -5.42015,10.95505 -9.99279,15.34631 -1.69439,1.62716 -4.00936,3.57108 -5.14438,4.31982 -2.93068,1.93329 -7.57575,4.03821 -10.80346,4.89564 -3.54576,0.94189 -10.60782,1.20055 -14.13465,0.51769 z m -15.91427,-21.44525 c -1.01005,-1.11606 -2.32888,-4.44847 -2.76595,-6.98886 -0.7892,-4.58719 0.18685,-11.20376 2.52342,-17.10603 1.72794,-4.36488 3.33905,-5.60726 6.25874,-4.82637 2.34231,0.62645 3.70804,0.51078 5.70233,-0.48302 2.95884,-1.47445 4.44439,-4.15851 4.46515,-8.06752 0.0101,-1.90569 -0.17708,-2.76053 -0.9167,-4.1861 l -0.92941,-1.79139 1.96366,-1.25614 c 7.97847,-5.10378 17.74144,-6.29213 22.46353,-2.73431 1.71537,1.29244 1.91507,0.61045 0.24313,-0.83031 -2.26588,-1.9526 -5.82381,-3.91938 -8.70452,-4.81177 -3.78649,-1.173 -10.04078,-1.16578 -13.84366,0.0159 -9.07965,2.82154 -16.59609,9.75876 -20.74478,19.14623 -1.95432,4.42214 -2.79967,8.63981 -2.83004,14.11986 -0.0328,5.91618 0.75018,9.69144 2.95559,14.25114 1.39878,2.89195 4.14739,6.7677 4.52895,6.38612 0.11216,-0.11216 -0.0541,-0.48901 -0.36944,-0.83749 z m -0.32245,-52.05981 c 1.62182,-1.31683 3.80704,-2.87864 4.85604,-3.47065 4.78362,-2.69973 7.76781,-8.42433 9.66701,-18.54441 0.78451,-4.18033 0.89971,-21.15743 0.18259,-26.90791 -0.99923,-8.01272 -2.62508,-14.12399 -4.91507,-18.4749 -1.64101,-3.11788 -2.53341,-4.04825 -4.53826,-4.73137 -0.93434,-0.31836 -3.05116,-1.34256 -4.70404,-2.276 -1.65288,-0.93344 -3.51559,-1.9767 -4.13935,-2.31836 -1.70797,-0.93552 -6.42094,-0.83567 -10.59248,0.22443 -9.67045,2.4575 -24.48077,11.77955 -33.19289,20.89259 -3.57297,3.7374 -5.56657,6.54201 -6.89544,9.70058 -0.87335,2.07584 -0.895,2.32566 -0.78518,9.06277 0.12472,7.6513 0.36396,8.70627 2.95275,13.02065 4.77517,7.95808 20.40218,19.22348 33.3453,24.0384 4.96263,1.8461 7.75827,2.3709 12.07974,2.26761 l 3.73052,-0.0892 z m -114.79045,-14.0235 c -1.14822,-1.26878 -2.42603,-4.69781 -2.69755,-7.23892 -0.60816,-5.69172 0.74982,-13.34384 3.26453,-18.3954 0.88274,-1.77326 1.4437,-2.43982 2.51756,-2.99159 1.21228,-0.62285 1.57238,-0.65894 2.93621,-0.29416 3.06276,0.81918 5.23916,0.38645 7.45517,-1.48225 2.81826,-2.37657 3.72938,-7.95573 1.84766,-11.31403 l -0.93305,-1.66524 1.31893,-0.87283 c 8.05104,-5.32791 17.81848,-6.71251 22.92185,-3.24924 2.23705,1.5181 2.22675,0.78264 -0.0142,-1.01418 -7.3727,-5.91145 -17.04382,-6.99145 -26.2294,-2.92915 -7.56448,3.34537 -14.54966,11.29568 -17.49826,19.91593 -3.83146,11.20132 -2.19123,23.21806 4.27225,31.29955 0.55646,0.69577 1.10173,1.17504 1.21172,1.06505 0.10998,-0.10998 -0.058,-0.48508 -0.3734,-0.83354 z m 108.47786,-77.97798 c -2.99354,-4.49516 -3.58728,-11.22082 -1.65823,-18.783592 1.84638,-7.238687 4.12326,-10.535835 6.97613,-10.102108 0.68393,0.103978 1.90403,0.289282 2.71135,0.411784 4.53322,0.687882 8.40704,-3.348776 8.40704,-8.760439 0,-1.950709 -0.18966,-2.827491 -0.91329,-4.222268 l -0.91329,-1.760321 1.66044,-1.033201 c 2.88115,-1.792787 4.09229,-2.429848 6.10151,-3.209393 6.37847,-2.474735 12.74282,-2.423292 16.5104,0.133456 1.84146,1.249654 2.08163,0.74472 0.3574,-0.751403 -2.14717,-1.863106 -5.31111,-3.644892 -8.30668,-4.677931 -3.70748,-1.278549 -9.84286,-1.35137 -13.99671,-0.166127 -4.94972,1.412333 -8.80235,3.672456 -12.80481,7.511889 -4.858,4.660111 -8.30026,10.570048 -10.04917,17.253201 -1.28491,4.910076 -1.36616,11.962466 -0.19238,16.698453 0.9341,3.76891 3.37707,8.97607 5.2089,11.10271 1.54692,1.79587 1.97243,1.96359 0.90139,0.35529 z"
       id="path47" />
  </g>
</svg>
